<svg xmlns="http://www.w3.org/2000/svg" viewBox="0 0 640 360" fill="none">
  <rect width="640" height="360" fill="#07192a"/>
  <rect x="20" y="20" width="600" height="320" rx="16" fill="#0b2a3f" stroke="#ff89d1" stroke-width="1.5" stroke-opacity="0.4"/>
  <!-- Network topology -->
  <!-- Central router -->
  <rect x="295" y="105" width="50" height="35" rx="6" fill="#ff89d1" fill-opacity="0.15" stroke="#ff89d1" stroke-width="2"/>
  <text x="320" y="127" text-anchor="middle" fill="#ff89d1" font-family="monospace" font-size="10">BGP</text>
  <!-- Surrounding nodes -->
  <circle cx="220" cy="80" r="16" fill="#00bfff" fill-opacity="0.1" stroke="#00bfff" stroke-width="1.5"/>
  <circle cx="420" cy="80" r="16" fill="#00bfff" fill-opacity="0.1" stroke="#00bfff" stroke-width="1.5"/>
  <circle cx="220" cy="165" r="16" fill="#56e372" fill-opacity="0.1" stroke="#56e372" stroke-width="1.5"/>
  <circle cx="420" cy="165" r="16" fill="#ff89d1" fill-opacity="0.2" stroke="#ff89d1" stroke-width="1.5"/>
  <!-- Connections -->
  <line x1="236" y1="80" x2="295" y2="115" stroke="#00bfff" stroke-width="1" opacity="0.5"/>
  <line x1="404" y1="80" x2="345" y2="115" stroke="#00bfff" stroke-width="1" opacity="0.5"/>
  <line x1="236" y1="165" x2="295" y2="135" stroke="#56e372" stroke-width="1" opacity="0.5"/>
  <!-- Malicious connection (dashed red) -->
  <line x1="404" y1="165" x2="345" y2="135" stroke="#ff4444" stroke-width="2" stroke-dasharray="6 3" opacity="0.7"/>
  <!-- Skull on malicious node -->
  <text x="420" y="170" text-anchor="middle" fill="#ff4444" font-family="sans-serif" font-size="14">⚠</text>
  <!-- Arrow showing hijack -->
  <path d="M380 140 Q400 120 420 100" stroke="#ff4444" stroke-width="1.5" fill="none" marker-end="url(#arrowhead)" opacity="0.6"/>
  <text x="320" y="240" text-anchor="middle" fill="#ff89d1" font-family="monospace" font-size="16" font-weight="bold">JUNIPER BGP HIJACKING</text>
  <text x="320" y="265" text-anchor="middle" fill="#d5e6f4" font-family="sans-serif" font-size="11" opacity="0.6">Junos OS — Route Hijacking via Malformed Packets</text>
  <line x1="40" y1="310" x2="600" y2="310" stroke="#ff89d1" stroke-width="0.5" opacity="0.2"/>
  <line x1="40" y1="40" x2="600" y2="40" stroke="#ff89d1" stroke-width="0.5" opacity="0.2"/>
</svg>
